<svg xmlns="http://www.w3.org/2000/svg" viewBox="0 0 512 512" role="img" aria-label="帝国火柴人战争图标">
  <rect width="512" height="512" rx="112" fill="#121616"/>
  <path d="M94 374c58-44 105-50 162-16 58-34 104-28 162 16v44H94z" fill="#263326"/>
  <path d="M84 214c64-80 116-96 172-28 56-68 108-52 172 28v160H84z" fill="#2f4039"/>
  <path d="M256 96l104 52v74c0 73-38 128-104 164-66-36-104-91-104-164v-74z" fill="#e6b84a"/>
  <path d="M256 126l70 35v56c0 48-24 86-70 114-46-28-70-66-70-114v-56z" fill="#1f55ba"/>
  <circle cx="256" cy="184" r="34" fill="#f5f0df"/>
  <path d="M256 218v92M212 252h88M222 344l34-34 34 34" fill="none" stroke="#f5f0df" stroke-width="24" stroke-linecap="round" stroke-linejoin="round"/>
  <path d="M154 160h204" stroke="#f5f0df" stroke-width="18" stroke-linecap="round"/>
  <path d="M364 150l62 32-62 32z" fill="#d94d43"/>
</svg>
